<svg x="0" y="0" width="700" height="350" viewBox="0 0 700 350" xmlns="http://www.w3.org/2000/svg" xmlns:xlink="http://www.w3.org/1999/xlink" xmlns:fi="http://pattern.flaticon.com/"><rect x="0px" y="0px" width="100%" height="100%" opacity="1" fill="#ffffff"/><defs><g transform="matrix(0.1367190182209015 0 0 0.1367190182209015 315 315)" id="L1_0"><rect x="239px" y="17px" width="32px" height="350px"/><path d="M320.389,53.143L266.012,4.15c-6.159-5.556-15.538-5.529-21.681,0.054l-53.839,48.993    c-6.601,6.003-7.08,16.222-1.077,22.817c6.003,6.606,16.222,7.08,22.817,1.077l43.022-39.146l43.512,39.2    c3.085,2.783,6.951,4.151,10.805,4.151c4.415,0,8.819-1.804,12.006-5.341C327.549,69.327,327.016,59.114,320.389,53.143z"/><path d="M255.201,351.566c-44.234,0-80.22,35.991-80.22,80.22s35.986,80.214,80.22,80.214s80.22-35.986,80.22-80.214    S299.435,351.566,255.201,351.566z M255.201,479.691c-26.419,0-47.916-21.492-47.916-47.911c0-26.419,21.498-47.916,47.916-47.916    c26.424,0,47.916,21.498,47.916,47.916S281.62,479.691,255.201,479.691z"/><path d="M389.798,102.293h-55.454c-8.921,0-16.152,7.231-16.152,16.152v55.448c0,8.921,7.231,16.152,16.152,16.152h55.454    c8.926,0,16.152-7.231,16.152-16.146v-55.454C405.949,109.523,398.719,102.293,389.798,102.293z M373.651,157.741h-23.151v-23.145    h23.151V157.741z"/><path d="M344.573,173.36v42.775l-95.208,36.917l11.678,30.117l105.524-40.912c6.213-2.407,10.31-8.393,10.31-15.059V173.36    H344.573z"/><path d="M149.677,149.138c-23.953,0-43.453,19.403-43.609,43.319c-0.328,11.425,3.876,22.262,11.866,30.543    c8.189,8.485,19.759,13.352,31.743,13.352c24.05,0,43.609-19.554,43.609-43.604C193.287,168.697,173.722,149.138,149.677,149.138z     M149.677,204.042c-3.316,0-6.337-1.233-8.501-3.478c-1.351-1.405-2.94-3.796-2.816-7.252c0.011-0.188,0.011-0.377,0.011-0.571    c0-6.132,5.179-11.306,11.306-11.306c6.127,0,11.306,5.174,11.306,11.301S155.804,204.042,149.677,204.042z"/><path d="M166.906,262.43v-42.775h-32.303v53.839c0,6.665,4.097,12.652,10.315,15.059l105.524,40.923l11.678-30.123L166.906,262.43    z"/></g><g transform="matrix(0.09765625 0 0 0.09765625 62.5 150)" id="L1_1"><path d="M343.332,90.721h-9.385v31.283h9.385c20.12,0,36.497,16.371,36.497,36.497v19.813c0,20.125-16.377,36.497-36.497,36.497    H168.668c-20.125,0-36.497-16.371-36.497-36.497v-19.813c0-20.125,16.371-36.497,36.497-36.497h8.342V90.721h-8.342    c-37.373,0-67.78,30.407-67.78,67.78v19.813c0,37.373,30.407,67.78,67.78,67.78h174.664c37.373,0,67.78-30.402,67.78-67.78    v-19.813C411.112,121.128,380.705,90.721,343.332,90.721z"/><path d="M379.308,173.1v186.134c0,14.375-11.695,26.069-26.069,26.069H158.24c-14.375,0-26.069-11.695-26.069-26.069V173.1    h-31.283v186.134c0,31.622,25.73,57.352,57.352,57.352h194.998c31.627,0,57.352-25.725,57.352-57.352V173.1H379.308z"/><path d="M298.493,400.945v38.061h-85.507v-38.061h-31.283v53.703c0,8.639,7.002,15.642,15.642,15.642h116.79    c8.645,0,15.642-7.002,15.642-15.641v-53.703H298.493z"/><path d="M318.827,0H192.13c-17.539,0-31.283,13.744-31.283,31.283v144.424c0,8.639,7.002,15.642,15.642,15.642h157.98    c8.639,0,15.642-7.002,15.642-15.642V31.283C350.11,13.744,336.366,0,318.827,0z M318.827,160.065H192.104l-0.214-128.761    c0,0,0.073-0.021,0.24-0.021h126.697V160.065z"/><rect x="197px" y="453px" width="31px" height="58px"/><rect x="282px" y="453px" width="31px" height="58px"/><path d="M255.739,38.582c-8.639,0-15.642,7.002-15.642,15.642v44.839c0,8.639,7.002,15.642,15.642,15.642    c8.645,0,15.642-7.002,15.642-15.642V54.224C271.381,45.585,264.379,38.582,255.739,38.582z"/><path d="M297.45,38.582c-8.639,0-15.642,7.002-15.642,15.642v44.839c0,8.639,7.002,15.642,15.642,15.642    c8.645,0,15.642-7.002,15.642-15.642V54.224C313.092,45.585,306.09,38.582,297.45,38.582z"/><path d="M214.029,38.582c-8.639,0-15.642,7.002-15.642,15.642v44.839c0,8.639,7.002,15.642,15.642,15.642    s15.642-7.002,15.642-15.642V54.224C229.67,45.585,222.668,38.582,214.029,38.582z"/></g><g transform="matrix(0.09765625 0 0 0.09765625 150 325)" id="L1_2"><path d="M353.977,273.46l-115.01-115.01c-6.568-6.573-17.224-6.573-23.792,0L69.631,303.993c-6.573,6.568-6.573,17.224,0,23.792    l115.01,115.01c3.281,3.287,7.588,4.93,11.896,4.93s8.615-1.643,11.896-4.93l145.544-145.544    C360.55,290.684,360.55,280.027,353.977,273.46z M196.537,407.107l-91.213-91.219l121.746-121.746l91.219,91.213L196.537,407.107z    "/><path d="M426.497,400.181l-64.645-64.645c-6.573-6.573-17.218-6.573-23.792,0l-82.884,82.884c-6.573,6.568-6.573,17.224,0,23.792    l64.651,64.645c3.287,3.287,7.588,4.93,11.896,4.93c4.302,0,8.609-1.643,11.896-4.93l82.879-82.884    C433.07,417.405,433.07,406.749,426.497,400.181z M331.716,471.169l-40.853-40.853l59.092-59.092l40.853,40.853L331.716,471.169z"/><path d="M176.251,150.311l-64.645-64.639c-6.568-6.568-17.224-6.573-23.792,0L4.93,168.556c-6.573,6.568-6.573,17.224,0,23.792    l64.645,64.645c3.152,3.158,7.437,4.93,11.896,4.93c4.464-0.006,8.738-1.772,11.896-4.93l82.89-82.884    c3.152-3.152,4.924-7.437,4.924-11.896C181.181,157.748,179.409,153.469,176.251,150.311z M81.471,221.299l-40.848-40.848    l59.092-59.092l40.848,40.848L81.471,221.299z"/><path d="M162.465,393.265l-29.608,29.602l-43.506-43.512l29.602-29.602l-23.792-23.792L53.658,367.46    c-3.158,3.152-4.93,7.431-4.93,11.896c0,4.465,1.772,8.738,4.93,11.896l67.303,67.303c3.281,3.287,7.588,4.93,11.896,4.93    s8.615-1.643,11.896-4.93l41.504-41.498L162.465,393.265z"/><rect x="123px" y="196px" width="33px" height="49px" transform="matrix(0.7127000093460083 -0.7013999819755554 0.7013999819755554 0.7127000093460083 -114.91940307617188 162.31900024414062)"/><rect x="274px" y="347px" width="33px" height="49px" transform="matrix(0.707099974155426 -0.707099974155426 0.707099974155426 0.707099974155426 -177.68609619140625 315.1488952636719)"/><rect x="276px" y="193px" width="49px" height="33px" transform="matrix(0.707099974155426 -0.707099974155426 0.707099974155426 0.707099974155426 -60.24769973754883 275.0911865234375)"/><path d="M482.392,180.693L331.526,29.821c-6.573-6.568-17.219-6.568-23.792,0c-23.253,23.253-36.063,54.263-36.063,87.332    c0,33.068,12.81,64.084,36.063,87.332c23.242,23.253,54.258,36.058,87.326,36.058s64.084-12.804,87.332-36.058    C488.965,197.917,488.965,187.261,482.392,180.693z M395.06,206.897c-24.078,0-46.636-9.305-63.534-26.203    c-16.899-16.899-26.203-39.462-26.203-63.54c0-18.329,5.396-35.783,15.424-50.522l124.842,124.842    C430.843,201.507,413.395,206.897,395.06,206.897z"/><rect x="385px" y="80px" width="57px" height="33px" transform="matrix(0.707099974155426 -0.707099974155426 0.707099974155426 0.707099974155426 52.23780059814453 321.66900634765625)"/><path d="M460.962,0.213c-28.15,0-51.044,22.9-51.044,51.038c0,28.138,22.894,51.039,51.044,51.039    c28.144,0,51.038-22.9,51.038-51.039C512,23.113,489.106,0.213,460.962,0.213z M460.962,68.638    c-9.591,0-17.392-7.802-17.392-17.387s7.802-17.387,17.392-17.387c9.585,0,17.387,7.802,17.387,17.387    S470.547,68.638,460.962,68.638z"/></g><g transform="matrix(0.09765625 0 0 0.09765625 237.5 150)" id="L1_3"><path d="M433.294,487.271l-122.09-199.052v-79.306h13.531c8.968,0,16.237-7.269,16.237-16.237V141.26    c0-8.968-7.269-16.237-16.237-16.237H187.264c-8.968,0-16.237,7.269-16.237,16.237v51.416c0,8.968,7.269,16.237,16.237,16.237    h13.531v79.306L78.71,487.277c-3.074,5.012-3.204,11.29-0.33,16.421c2.874,5.125,8.292,8.302,14.169,8.302H419.45    c5.878,0,11.295-3.177,14.175-8.308C436.493,498.561,436.363,492.283,433.294,487.271z M121.553,479.526L230.87,301.29    c1.57-2.549,2.398-5.488,2.398-8.486V192.677c0-8.968-7.269-16.237-16.237-16.237H203.5v-18.943h104.998v18.943h-13.531    c-8.968,0-16.237,7.269-16.237,16.237v100.127c0,2.993,0.828,5.932,2.392,8.486l109.322,178.237H121.553z"/><rect x="144px" y="393px" width="222px" height="32px"/><path d="M302.004,0c-26.861,0-48.71,21.855-48.71,48.71c0,26.856,21.849,48.71,48.71,48.71c26.861,0,48.71-21.855,48.71-48.71    C350.714,21.855,328.865,0,302.004,0z M302.004,64.947c-8.952,0-16.237-7.285-16.237-16.237c0-8.952,7.285-16.237,16.237-16.237    c8.952,0,16.237,7.285,16.237,16.237C318.24,57.662,310.955,64.947,302.004,64.947z"/></g></defs><g fi:class="KUsePattern" opacity="0.15"><pattern id="pattern_L1_0" width="350" height="350" patternUnits="userSpaceOnUse"><use xlink:href="#L1_0" x="-350" y="-350"/><use xlink:href="#L1_0" x="0" y="-350"/><use xlink:href="#L1_0" x="350" y="-350"/><use xlink:href="#L1_0" x="-350" y="0"/><use xlink:href="#L1_0" x="0" y="0"/><use xlink:href="#L1_0" x="350" y="0"/><use xlink:href="#L1_0" x="-350" y="350"/><use xlink:href="#L1_0" x="0" y="350"/><use xlink:href="#L1_0" x="350" y="350"/></pattern><rect x="0" y="0" width="100%" height="100%" fill="url(#pattern_L1_0)"/></g><g fi:class="KUsePattern" opacity="0.15"><pattern id="pattern_L1_1" width="350" height="350" patternUnits="userSpaceOnUse"><use xlink:href="#L1_1" x="-350" y="-350"/><use xlink:href="#L1_1" x="0" y="-350"/><use xlink:href="#L1_1" x="350" y="-350"/><use xlink:href="#L1_1" x="-350" y="0"/><use xlink:href="#L1_1" x="0" y="0"/><use xlink:href="#L1_1" x="350" y="0"/><use xlink:href="#L1_1" x="-350" y="350"/><use xlink:href="#L1_1" x="0" y="350"/><use xlink:href="#L1_1" x="350" y="350"/></pattern><rect x="0" y="0" width="100%" height="100%" fill="url(#pattern_L1_1)"/></g><g fi:class="KUsePattern" opacity="0.15"><pattern id="pattern_L1_2" width="350" height="350" patternUnits="userSpaceOnUse"><use xlink:href="#L1_2" x="-350" y="-350"/><use xlink:href="#L1_2" x="0" y="-350"/><use xlink:href="#L1_2" x="350" y="-350"/><use xlink:href="#L1_2" x="-350" y="0"/><use xlink:href="#L1_2" x="0" y="0"/><use xlink:href="#L1_2" x="350" y="0"/><use xlink:href="#L1_2" x="-350" y="350"/><use xlink:href="#L1_2" x="0" y="350"/><use xlink:href="#L1_2" x="350" y="350"/></pattern><rect x="0" y="0" width="100%" height="100%" fill="url(#pattern_L1_2)"/></g><g fi:class="KUsePattern" opacity="0.14"><pattern id="pattern_L1_3" width="350" height="350" patternUnits="userSpaceOnUse"><use xlink:href="#L1_3" x="-350" y="-350"/><use xlink:href="#L1_3" x="0" y="-350"/><use xlink:href="#L1_3" x="350" y="-350"/><use xlink:href="#L1_3" x="-350" y="0"/><use xlink:href="#L1_3" x="0" y="0"/><use xlink:href="#L1_3" x="350" y="0"/><use xlink:href="#L1_3" x="-350" y="350"/><use xlink:href="#L1_3" x="0" y="350"/><use xlink:href="#L1_3" x="350" y="350"/></pattern><rect x="0" y="0" width="100%" height="100%" fill="url(#pattern_L1_3)"/></g></svg>